<svg width="100" height="100" viewBox="0 0 100 100" fill="none" xmlns="http://www.w3.org/2000/svg">
<path fill-rule="evenodd" clip-rule="evenodd" d="M57.2565 65.1476C57.2565 63.9615 56.295 63 55.109 63C53.9229 63 52.9614 63.9615 52.9614 65.1476V68.816L50.3674 66.222C49.5287 65.3834 48.169 65.3834 47.3303 66.222C46.4916 67.0607 46.4916 68.4205 47.3303 69.2592L49.9243 71.8532H46.2559C45.0699 71.8532 44.1084 72.8147 44.1084 74.0007C44.1084 75.1868 45.0699 76.1483 46.2559 76.1483L49.9242 76.1483L47.3302 78.7423C46.4915 79.581 46.4915 80.9407 47.3302 81.7794C48.1689 82.6181 49.5286 82.6181 50.3673 81.7794L52.9614 79.1853V82.8539C52.9614 84.0399 53.9229 85.0014 55.109 85.0014C56.295 85.0014 57.2565 84.0399 57.2565 82.8539V79.1854L59.8505 81.7794C60.6892 82.6181 62.049 82.6181 62.8877 81.7794C63.7263 80.9407 63.7263 79.581 62.8877 78.7423L60.2937 76.1483L63.9622 76.1483C65.1483 76.1483 66.1098 75.1868 66.1098 74.0007C66.1098 72.8147 65.1483 71.8532 63.9622 71.8532H60.2936L62.8876 69.2592C63.7262 68.4205 63.7262 67.0607 62.8876 66.222C62.0489 65.3834 60.6891 65.3834 59.8504 66.222L57.2565 68.8159V65.1476Z" fill="url(#paint0_linear_19_852)"/>
<path fill-rule="evenodd" clip-rule="evenodd" d="M67.4839 17.0244C67.4839 15.3541 66.1298 14 64.4595 14C62.7892 14 61.4351 15.3541 61.4351 17.0244V21.6996L58.1292 18.3937C56.9481 17.2126 55.0332 17.2126 53.8521 18.3937C52.671 19.5748 52.671 21.4897 53.8521 22.6708L57.1578 25.9766L52.4829 25.9766C50.8126 25.9766 49.4585 27.3307 49.4585 29.001C49.4585 30.6713 50.8126 32.0254 52.4829 32.0254H57.1579L53.8521 35.3312C52.671 36.5123 52.671 38.4272 53.8521 39.6083C55.0332 40.7894 56.9482 40.7894 58.1293 39.6083L61.4351 36.3025V40.9776C61.4351 42.6479 62.7892 44.002 64.4595 44.002C66.1298 44.002 67.4839 42.6479 67.4839 40.9776V36.3026L70.7895 39.6083C71.9706 40.7894 73.8856 40.7894 75.0667 39.6083C76.2478 38.4272 76.2478 36.5123 75.0667 35.3312L71.7609 32.0254H76.4361C78.1064 32.0254 79.4605 30.6713 79.4605 29.001C79.4605 27.3307 78.1064 25.9766 76.4361 25.9766L71.761 25.9766L75.0667 22.6708C76.2478 21.4897 76.2478 19.5748 75.0667 18.3937C73.8856 17.2126 71.9707 17.2126 70.7896 18.3937L67.4839 21.6994V17.0244Z" fill="url(#paint1_linear_19_852)"/>
<path fill-rule="evenodd" clip-rule="evenodd" d="M36.6186 37.4084C36.6186 35.9627 35.4466 34.7906 34.0009 34.7906C32.5551 34.7906 31.3831 35.9627 31.3831 37.4084V41.4717L28.5099 38.5985C27.4877 37.5762 25.8302 37.5762 24.8079 38.5985C23.7856 39.6208 23.7856 41.2783 24.8079 42.3006L27.6811 45.1737L23.6178 45.1737C22.172 45.1737 21 46.3457 21 47.7915C21 49.2372 22.172 50.4092 23.6177 50.4092L27.6811 50.4092L24.8079 53.2824C23.7856 54.3047 23.7856 55.9621 24.8079 56.9844C25.8302 58.0067 27.4877 58.0067 28.5099 56.9844L31.3831 54.1113V58.1745C31.3831 59.6203 32.5551 60.7923 34.0009 60.7923C35.4466 60.7923 36.6186 59.6203 36.6186 58.1745V54.1113L39.4918 56.9844C40.5141 58.0067 42.1715 58.0067 43.1938 56.9844C44.2161 55.9621 44.2161 54.3047 43.1938 53.2824L40.3207 50.4092L44.3839 50.4092C45.8296 50.4092 47.0016 49.2372 47.0016 47.7915C47.0016 46.3457 45.8296 45.1737 44.3839 45.1737L40.3207 45.1737L43.1938 42.3006C44.2161 41.2783 44.2161 39.6208 43.1938 38.5985C42.1715 37.5762 40.5141 37.5762 39.4918 38.5985L36.6186 41.4716V37.4084Z" fill="url(#paint2_linear_19_852)"/>
<defs>
<linearGradient id="paint0_linear_19_852" x1="47.2491" y1="80.5488" x2="68.145" y2="62.9119" gradientUnits="userSpaceOnUse">
<stop stop-color="#0056D6"/>
<stop offset="1" stop-color="#ADD8FF"/>
</linearGradient>
<linearGradient id="paint1_linear_19_852" x1="53.7414" y1="37.9302" x2="82.2358" y2="13.8798" gradientUnits="userSpaceOnUse">
<stop stop-color="#0056D6"/>
<stop offset="1" stop-color="#ADD8FF"/>
</linearGradient>
<linearGradient id="paint2_linear_19_852" x1="24.7118" y1="55.5301" x2="49.4069" y2="34.6865" gradientUnits="userSpaceOnUse">
<stop stop-color="#0056D6"/>
<stop offset="1" stop-color="#ADD8FF"/>
</linearGradient>
</defs>
</svg>
