<svg width="111" height="110" viewBox="0 0 111 110" fill="none" xmlns="http://www.w3.org/2000/svg">
<g filter="url(#filter0_ddi_1_420)">
<circle cx="63" cy="52" r="32" fill="url(#paint0_linear_1_420)"/>
</g>
<g filter="url(#filter1_bd_1_420)">
<path fill-rule="evenodd" clip-rule="evenodd" d="M24 25C24 21.134 27.134 18 31 18C34.866 18 38 21.134 38 25V61.6085C43.3285 64.2051 47 69.6738 47 76C47 84.8366 39.8366 92 31 92C22.1634 92 15 84.8366 15 76C15 69.6738 18.6715 64.2051 24 61.6085V45.5H29C29.8284 45.5 30.5 44.8284 30.5 44C30.5 43.1716 29.8284 42.5 29 42.5H24V39.5H29C29.8284 39.5 30.5 38.8284 30.5 38C30.5 37.1716 29.8284 36.5 29 36.5H24V33.5H29C29.8284 33.5 30.5 32.8284 30.5 32C30.5 31.1716 29.8284 30.5 29 30.5H24V25Z" fill="url(#paint1_linear_1_420)" shape-rendering="crispEdges"/>
</g>
<defs>
<filter id="filter0_ddi_1_420" x="15" y="4" width="96" height="96" filterUnits="userSpaceOnUse" color-interpolation-filters="sRGB">
<feFlood flood-opacity="0" result="BackgroundImageFix"/>
<feColorMatrix in="SourceAlpha" type="matrix" values="0 0 0 0 0 0 0 0 0 0 0 0 0 0 0 0 0 0 127 0" result="hardAlpha"/>
<feOffset/>
<feGaussianBlur stdDeviation="8"/>
<feComposite in2="hardAlpha" operator="out"/>
<feColorMatrix type="matrix" values="0 0 0 0 0.992157 0 0 0 0 0.773882 0 0 0 0 0 0 0 0 1 0"/>
<feBlend mode="normal" in2="BackgroundImageFix" result="effect1_dropShadow_1_420"/>
<feColorMatrix in="SourceAlpha" type="matrix" values="0 0 0 0 0 0 0 0 0 0 0 0 0 0 0 0 0 0 127 0" result="hardAlpha"/>
<feOffset/>
<feGaussianBlur stdDeviation="5.5"/>
<feComposite in2="hardAlpha" operator="out"/>
<feColorMatrix type="matrix" values="0 0 0 0 0.992157 0 0 0 0 0.772549 0 0 0 0 0 0 0 0 0.45 0"/>
<feBlend mode="normal" in2="effect1_dropShadow_1_420" result="effect2_dropShadow_1_420"/>
<feBlend mode="normal" in="SourceGraphic" in2="effect2_dropShadow_1_420" result="shape"/>
<feColorMatrix in="SourceAlpha" type="matrix" values="0 0 0 0 0 0 0 0 0 0 0 0 0 0 0 0 0 0 127 0" result="hardAlpha"/>
<feOffset dx="-1" dy="3"/>
<feGaussianBlur stdDeviation="2.5"/>
<feComposite in2="hardAlpha" operator="arithmetic" k2="-1" k3="1"/>
<feColorMatrix type="matrix" values="0 0 0 0 1 0 0 0 0 0.9 0 0 0 0 0 0 0 0 0.35 0"/>
<feBlend mode="normal" in2="shape" result="effect3_innerShadow_1_420"/>
</filter>
<filter id="filter1_bd_1_420" x="4" y="4" width="60" height="102" filterUnits="userSpaceOnUse" color-interpolation-filters="sRGB">
<feFlood flood-opacity="0" result="BackgroundImageFix"/>
<feGaussianBlur in="BackgroundImageFix" stdDeviation="3.5"/>
<feComposite in2="SourceAlpha" operator="in" result="effect1_backgroundBlur_1_420"/>
<feColorMatrix in="SourceAlpha" type="matrix" values="0 0 0 0 0 0 0 0 0 0 0 0 0 0 0 0 0 0 127 0" result="hardAlpha"/>
<feOffset dx="3"/>
<feGaussianBlur stdDeviation="7"/>
<feComposite in2="hardAlpha" operator="out"/>
<feColorMatrix type="matrix" values="0 0 0 0 0 0 0 0 0 0 0 0 0 0 0 0 0 0 0.15 0"/>
<feBlend mode="normal" in2="effect1_backgroundBlur_1_420" result="effect2_dropShadow_1_420"/>
<feBlend mode="normal" in="SourceGraphic" in2="effect2_dropShadow_1_420" result="shape"/>
</filter>
<linearGradient id="paint0_linear_1_420" x1="63" y1="20" x2="63" y2="84" gradientUnits="userSpaceOnUse">
<stop stop-color="#FDC500"/>
<stop offset="1" stop-color="#FD8900"/>
</linearGradient>
<linearGradient id="paint1_linear_1_420" x1="27" y1="92" x2="37" y2="23" gradientUnits="userSpaceOnUse">
<stop stop-color="#B70000"/>
<stop offset="1" stop-color="#FF5151" stop-opacity="0.7"/>
</linearGradient>
</defs>
</svg>
