<svg width="110" height="110" viewBox="0 0 110 110" fill="none" xmlns="http://www.w3.org/2000/svg">
<path fill-rule="evenodd" clip-rule="evenodd" d="M61.1953 29.1933C61.1953 25.7728 58.4225 23 55.0021 23C51.5816 23 48.8088 25.7728 48.8088 29.1933V40.0505L41.1315 32.3732C38.7129 29.9546 34.7915 29.9546 32.3729 32.3732C29.9543 34.7919 29.9543 38.7132 32.3729 41.1318L40.05 48.809L29.1933 48.809C25.7728 48.809 23 51.5818 23 55.0022C23 58.4227 25.7728 61.1955 29.1933 61.1955L40.0501 61.1955L32.373 68.8726C29.9544 71.2912 29.9544 75.2126 32.373 77.6312C34.7916 80.0498 38.713 80.0498 41.1316 77.6312L48.8088 69.954V80.8112C48.8088 84.2316 51.5816 87.0044 55.0021 87.0044C58.4225 87.0044 61.1953 84.2316 61.1953 80.8112V69.9543L68.8723 77.6312C71.2909 80.0498 75.2123 80.0498 77.6309 77.6312C80.0495 75.2126 80.0495 71.2912 77.6309 68.8726L69.9538 61.1955L80.8111 61.1955C84.2316 61.1955 87.0044 58.4227 87.0044 55.0022C87.0044 51.5818 84.2316 48.809 80.8111 48.809L69.9539 48.809L77.631 41.1318C80.0496 38.7132 80.0496 34.7919 77.631 32.3732C75.2123 29.9546 71.291 29.9546 68.8724 32.3732L61.1953 40.0503V29.1933Z" fill="url(#paint0_linear_1_368)"/>
<defs>
<linearGradient id="paint0_linear_1_368" x1="32.1368" y1="74.0512" x2="92.9251" y2="22.7436" gradientUnits="userSpaceOnUse">
<stop stop-color="#0056D6"/>
<stop offset="1" stop-color="#ADD8FF"/>
</linearGradient>
</defs>
</svg>
