<svg width="110" height="110" viewBox="0 0 110 110" fill="none" xmlns="http://www.w3.org/2000/svg">
<path d="M37.7629 55.595L56.163 23.9936C56.5212 23.3784 57.1795 23 57.8914 23H81.3304C82.086 23 82.5687 23.8058 82.2121 24.4719L72.9003 41.8673C72.5437 42.5335 73.0263 43.3393 73.7819 43.3393H80.1997C81.1394 43.3393 81.5603 44.5179 80.8332 45.1131L30.2979 86.4817C29.4353 87.1878 28.2388 86.1662 28.8009 85.2036L44.335 58.6025C44.7243 57.9358 44.2435 57.0982 43.4715 57.0982H38.6271C37.8556 57.0982 37.3747 56.2617 37.7629 55.595Z" fill="url(#paint0_linear_1_369)"/>
<defs>
<linearGradient id="paint0_linear_1_369" x1="54.5" y1="23" x2="54.5" y2="90" gradientUnits="userSpaceOnUse">
<stop stop-color="#F8FD00"/>
<stop offset="1" stop-color="#FD9800"/>
</linearGradient>
</defs>
</svg>
